<svg xmlns="http://www.w3.org/2000/svg" viewBox="0 0 500 500"><g id="freepik--background-complete--inject-3"><rect y="382.4" width="500" height="0.25" style="fill:#ebebeb"></rect><rect x="416.78" y="398.49" width="33.12" height="0.25" style="fill:#ebebeb"></rect><rect x="239.64" y="395.44" width="30.22" height="0.25" style="fill:#ebebeb"></rect><rect x="345.89" y="389.21" width="69.89" height="0.25" style="fill:#ebebeb"></rect><rect x="52.46" y="390.89" width="167.14" height="0.25" style="fill:#ebebeb"></rect><rect x="228.5" y="390.89" width="6.33" height="0.25" style="fill:#ebebeb"></rect><path d="M237,337.8H43.91a5.71,5.71,0,0,1-5.7-5.71V60.66A5.71,5.71,0,0,1,43.91,55H237a5.71,5.71,0,0,1,5.71,5.71V332.09A5.71,5.71,0,0,1,237,337.8ZM43.91,55.2a5.46,5.46,0,0,0-5.45,5.46V332.09a5.46,5.46,0,0,0,5.45,5.46H237a5.47,5.47,0,0,0,5.46-5.46V60.66A5.47,5.47,0,0,0,237,55.2Z" style="fill:#ebebeb"></path><path d="M453.31,337.8H260.21a5.72,5.72,0,0,1-5.71-5.71V60.66A5.72,5.72,0,0,1,260.21,55h193.1A5.71,5.71,0,0,1,459,60.66V332.09A5.71,5.71,0,0,1,453.31,337.8ZM260.21,55.2a5.47,5.47,0,0,0-5.46,5.46V332.09a5.47,5.47,0,0,0,5.46,5.46h193.1a5.47,5.47,0,0,0,5.46-5.46V60.66a5.47,5.47,0,0,0-5.46-5.46Z" style="fill:#ebebeb"></path><rect x="336.84" y="81.44" width="107.8" height="119.07" style="fill:#f5f5f5"></rect><rect x="335.63" y="81.44" width="1.21" height="119.07" transform="translate(672.47 281.94) rotate(180)" style="fill:#ebebeb"></rect><path d="M416.51,117.62a18.23,18.23,0,0,0-25.77,0A18.22,18.22,0,0,0,365,143.38l25.76,25.77,25.77-25.77A18.22,18.22,0,0,0,416.51,117.62Z" style="fill:#fff"></path><path d="M194.09,188.48a74.21,74.21,0,1,0-85.75,73.31,4.78,4.78,0,0,0,2.84,8.62h2l-6.65,112h26.59l-6.65-112h2.06a4.77,4.77,0,0,0,2.83-8.62A74.22,74.22,0,0,0,194.09,188.48Zm-74.22,62.46a62.47,62.47,0,1,1,62.48-62.46A62.46,62.46,0,0,1,119.87,250.94Z" style="fill:#e6e6e6;opacity:0.30000000000000004"></path><path d="M100,245.72c-31.61,0-54.36-25.63-50.81-57.24s32.07-57.25,63.68-57.25,54.37,25.63,50.81,57.25S131.58,245.72,100,245.72Z" style="fill:#fafafa;opacity:0.6000000000000001"></path><path d="M112.83,131.24h-1.08L49.29,187.4c0,.36-.09.72-.13,1.08a52.39,52.39,0,0,0,7.65,34.45L146,142.76A51.59,51.59,0,0,0,112.83,131.24Z" style="fill:#fff"></path><path d="M151.24,147.79l-90.05,81a48,48,0,0,0,9.24,8.16l87.83-79A48.76,48.76,0,0,0,151.24,147.79Z" style="fill:#fff"></path><path d="M180.61,188.48c4.61-41-24.89-74.21-65.87-74.21S36.8,147.5,32.19,188.48C28,225.54,51.74,256.25,86.62,261.79a5.48,5.48,0,0,0-2.38,3.83,4.2,4.2,0,0,0,4.25,4.79h2.05L71.3,382.4H97.89l5.94-112h2a5.5,5.5,0,0,0,5.33-4.79,4.25,4.25,0,0,0-1.52-3.83C145.82,256.25,176.44,225.54,180.61,188.48ZM99.37,250.94c-34.49,0-59.32-28-55.44-62.46S78.92,126,113.42,126s59.32,28,55.44,62.47S133.87,250.94,99.37,250.94Z" style="fill:#f0f0f0"></path><path d="M353.24,300.71c-9.7-11.81-5.06-32.18,6.48-35.9s19.82-13.71,23.59-23.17,19.14-28.57,37.54-31.54,17.34-7.19,35.88-12.38,35,12.57,13.16,18.86-6.23,34.47-29.12,45.15-22.11,23.53-24.22,38.13S374.67,326.81,353.24,300.71Z" style="fill:#ebebeb"></path><path d="M351.39,338.79l-1-.25c13.37-50.74,43.94-84.72,67.22-104.29,25.22-21.2,47.59-30.53,47.82-30.62l.38.92c-.23.09-22.48,9.38-47.59,30.49C395.09,254.52,364.69,288.32,351.39,338.79Z" style="fill:#fafafa"></path><path d="M327.76,315.1c-14.57-7.25-21.05-30.38-12.88-39.91s10.23-23.85,8.64-35.39,2-38.71,16.5-50.88,11.44-16,25-30.48,37.08-4.54,21.24,12.73,12.38,38.32-2.11,60.62-7.16,35-1.46,51S360,331.13,327.76,315.1Z" style="fill:#e6e6e6"></path><path d="M341.25,337.17c-13-37.17-4.88-81,4.24-111.22,10-33.22,24.69-60.53,30-64l.55.83c-8.94,5.9-58.38,104-33.83,174.08Z" style="fill:#fafafa"></path><polygon points="380.26 324.44 317.19 324.44 323.56 382.4 373.89 382.4 380.26 324.44" style="fill:#f5f5f5"></polygon><path d="M191,242c-14.55,4.12-36.78,12.24-48.65,18.37,12.64-13.3,39.52-22.09,50.06-25-13.53-.31-46.25,1.74-46.25,1.74a268,268,0,0,1,32.35-6.83c-8.17-2.07-16.5-3.69-22.24-3.91,15.88-5,42.11,2.11,44.75,3.07,2.37-2.77,9.88-10.21,16.82-8.41-3.23,1.46-7.76,6.13-11.22,10.52a32.76,32.76,0,0,1,21.28-1.76c-6.51.6-19.1,5.17-21.47,13.76,3.45,19,5.46,57.4,5.71,84.86h4.42C221,288.83,230.83,227.48,239,203.56c.16-2.34,3.53-11.89,7.53-13.28,3.61-1.26,39.66-10.73,60.11-4.09-7.68.29-19,2.45-30.21,5.2,20.38,2.75,42.11,9.1,42.11,9.1s-43.31-2.72-61.38-2.31c13.61,3.86,48.16,15.57,63.05,33.29-21.2-11.6-69.71-28.56-79-28-.35.77-.72,1.71-1.19,2.91-2.59,6.55-10.48,42.69-13.36,61.24-2,12.54-5.78,41.35-8,60.77h21.84l-3.38,8.32h-1.81L228.6,382.4h-34l-6.79-45.69H186l-3.38-8.32h27.83c-.14-14.2-.57-32.49-.95-40.95-.51-11-2.45-30.32-3.93-40.31-3,.84-13.56,9.61-18.34,17.07a60.55,60.55,0,0,1,11.22-18.91c-7.42,2.39-19,7.59-25.52,12.77A67.59,67.59,0,0,1,191,242Z" style="fill:#e6e6e6"></path></g><g id="freepik--Shadow--inject-3"><ellipse id="freepik--path--inject-3" cx="250" cy="416.24" rx="193.89" ry="11.32" style="fill:#f5f5f5"></ellipse></g><g id="freepik--character-1--inject-3"><circle cx="165.8" cy="96.89" r="21.15" style="fill:#263238"></circle><polygon points="189.93 390.54 182.62 395.37 170.89 379.4 178.2 374.57 189.93 390.54" style="fill:#7f3e3b"></polygon><path d="M182,394.58l8-5.27a.63.63,0,0,1,.87.12l4.69,6a1.47,1.47,0,0,1-.4,2.08c-2.9,1.85-7.14,4.42-10.76,6.82-4.23,2.79-3.62,4.73-9.3,6.37-3.44,1-4.82-2.34-3.42-3.07,6.36-3.36,5.45-4.76,8.86-11.29A4.71,4.71,0,0,1,182,394.58Z" style="fill:#263238"></path><polygon points="170.89 379.41 176.94 387.64 184.25 382.8 178.21 374.57 170.89 379.41" style="opacity:0.2"></polygon><path d="M171.93,132.9c-11-2.45-22.28-2.68-33.74-1.64a9.36,9.36,0,0,0-8.18,7c-2.61,10.61-7.14,34.54-6.42,71l46.25.75c.95-6.5.2-36.64,8-67.06A8,8,0,0,0,171.93,132.9Z" style="fill:#263238"></path><path d="M144.08,139.42l1.22,3.45a1,1,0,0,0,.78.65l1.76.27a1.42,1.42,0,0,0,.92-.18l3.35-2-3.42-3.13Z" style="fill:#407BFF"></path><path d="M148,142.74a4,4,0,0,0-2.05-.27c-2.06,3.55-5.43,13.93-6.38,18.56,2.82,9.48,4.09,10.52,4.09,10.52l4.1-10.88S147.22,149.21,148,142.74Z" style="fill:#407BFF"></path><path d="M165.13,109.79c-1.87,6.22-4.26,17.7-.28,22.25-3.77,3.15-8.64,6.76-16.15,6.47s-5.69-5.36-3.44-7.93c7.2-1.16,7.54-6.4,6.81-11.4Z" style="fill:#7f3e3b"></path><path d="M166.83,131.67a9.12,9.12,0,0,0-1.57-.7.66.66,0,0,0-.76.23c-.88,1.15-3.79,6.39-15.81,7.31,1.78,1.34,3.89,5.15,4.78,7,3.76-1.48,13.64-6,13.69-13.23A.69.69,0,0,0,166.83,131.67Z" style="fill:#fff"></path><path d="M145.29,130.87a.67.67,0,0,0-.69-.89,10,10,0,0,0-1.24.2.93.93,0,0,0-.27.12c-1,.75-6.84,7.35-3,13.56,1.23-1.45,5-4.67,8.6-5.35C145.59,136.68,144.32,133.73,145.29,130.87Z" style="fill:#fff"></path><path d="M159.81,113.62l-7.73,5.56a19.25,19.25,0,0,1,.25,3.53c2.73-.19,6.71-2.87,7.28-5.67A9.66,9.66,0,0,0,159.81,113.62Z" style="opacity:0.2"></path><path d="M171.25,101.88c-2.76,8.28-4,13.25-9.29,16.66-8,5.12-17.22-.94-16.94-9.74.24-7.93,4.71-20.15,13.71-21.74S174,93.59,171.25,101.88Z" style="fill:#7f3e3b"></path><path d="M168.08,107.7l-4.93-2s5.9-6.47,6.24-10.39c-9.15-1.4-21.89-1.13-16.61-9.67,3.56-5.75,7.74-5.74,15.47-3.11,12.68,4.32,11,15.39,8.14,21.7S168.08,107.7,168.08,107.7Z" style="fill:#263238"></path><path d="M170.36,107.67a.26.26,0,0,1-.17-.07,23.76,23.76,0,0,0-8-4.89.26.26,0,0,1-.16-.33.25.25,0,0,1,.32-.16,24.35,24.35,0,0,1,8.19,5,.26.26,0,0,1,0,.36A.27.27,0,0,1,170.36,107.67Z" style="fill:#fff"></path><path d="M152.32,110.06a6,6,0,0,0,4.57-.6.24.24,0,0,0,.07-.29.21.21,0,0,0-.29,0,5.71,5.71,0,0,1-5,.27.22.22,0,0,0-.28.11.2.2,0,0,0,.1.27A7.77,7.77,0,0,0,152.32,110.06Z" style="fill:#263238"></path><path d="M171.72,111.62a8.69,8.69,0,0,1-5.82,2.59c-2.87.07-3.46-2.65-2-5,1.35-2.1,4.48-4.68,7-3.64S173.62,109.67,171.72,111.62Z" style="fill:#7f3e3b"></path><path d="M148.2,295.17c1-43.53,11.92-85.34,11.92-85.34L124,209.25s2.21,62.87,2.84,89.21c.65,27.38,45.91,89.56,45.91,89.56l12.39-8.19S149.17,329.53,148.2,295.17Z" style="fill:#407BFF"></path><path d="M151.53,233.78c-10.72,14.09-6.92,40.59-3.28,59.31a406.29,406.29,0,0,1,7.16-61.64Z" style="opacity:0.2;mix-blend-mode:multiply"></path><polygon points="172.19 388.81 186.92 379.07 183.73 374.51 168.24 384.37 172.19 388.81" style="fill:#263238"></polygon><path d="M158.48,101.1c-.19.68-.69,1.16-1.13,1.06s-.65-.72-.47-1.41.69-1.16,1.13-1.06S158.66,100.42,158.48,101.1Z" style="fill:#263238"></path><path d="M150.66,99.65c-.18.68-.69,1.16-1.13,1.06s-.64-.72-.46-1.41.69-1.16,1.13-1.06S150.85,99,150.66,99.65Z" style="fill:#263238"></path><path d="M152.8,100.45a25.46,25.46,0,0,1-4.8,4.47c.88,1.18,3.05,1.1,3.05,1.1Z" style="fill:#630f0f"></path><path d="M161.67,99.21a.32.32,0,0,0,.21,0,.43.43,0,0,0,.23-.54,3.81,3.81,0,0,0-2.78-2.36.44.44,0,0,0-.48.35.38.38,0,0,0,.32.47h0A3,3,0,0,1,161.35,99,.36.36,0,0,0,161.67,99.21Z" style="fill:#263238"></path><path d="M147.68,95.7a.42.42,0,0,0,.39,0,3.4,3.4,0,0,1,3-.56.44.44,0,0,0,.55-.24.39.39,0,0,0-.22-.52,4.21,4.21,0,0,0-3.74.66.41.41,0,0,0-.12.57A.31.31,0,0,0,147.68,95.7Z" style="fill:#263238"></path><path d="M181.1,396.13a.22.22,0,0,0,0-.22.2.2,0,0,0-.2-.11c-.44,0-4.27.49-4.86,1.57a.67.67,0,0,0,0,.66h0a1.07,1.07,0,0,0,.82.63c1.23.18,3.16-1.49,4.2-2.51Zm-4.63,1.37c.44-.56,2.4-1,3.89-1.21-1.46,1.33-2.7,2.06-3.39,2a.72.72,0,0,1-.54-.42.24.24,0,0,1,0-.26A.16.16,0,0,1,176.47,397.5Z" style="fill:#407BFF"></path><path d="M181.1,396.13s0,0,0-.05a.2.2,0,0,0,0-.21c-.06-.08-1.43-1.93-2.82-2.08a1.53,1.53,0,0,0-1.14.34h0c-.44.36-.44.7-.35.91.36.92,3,1.35,4.17,1.17A.2.2,0,0,0,181.1,396.13Zm-3.86-1.52a.71.71,0,0,1,.15-.16h0a1.06,1.06,0,0,1,.84-.24,4.52,4.52,0,0,1,2.32,1.62c-1.23.06-3.16-.41-3.38-1C177.16,394.84,177.12,394.75,177.24,394.61Zm0-.32Z" style="fill:#407BFF"></path><polygon points="174.4 402.04 165.74 401.91 164.17 381.82 172.82 381.96 174.4 402.04" style="fill:#7f3e3b"></polygon><path d="M165.37,400.9l9.42.15a.62.62,0,0,1,.63.61l.33,7.72a1.53,1.53,0,0,1-1.52,1.52c-3.39-.12-4.44-.39-8.71-.46-5-.08-8.88.13-14.74,0-3.55-.05-3.88-3.64-2.34-4,4.87-1,12.43-2.92,14.72-5A3.23,3.23,0,0,1,165.37,400.9Z" style="fill:#263238"></path><polygon points="164.17 381.83 164.98 392.18 173.64 392.32 172.83 381.97 164.17 381.83" style="opacity:0.2"></polygon><path d="M173,294.57c-.5-39,2-69.41-3.12-84.58l-30.56-.49s10.74,60.81,13.77,86.95c3.14,27.17,8.31,91.12,8.31,91.12l13.95.19S178.7,325,173,294.57Z" style="fill:#407BFF"></path><polygon points="159.25 390.44 176.66 390.72 178 385.07 158.62 384.47 159.25 390.44" style="fill:#263238"></polygon><path d="M164.87,401.18A.2.2,0,0,0,165,401a.19.19,0,0,0-.1-.21c-.38-.19-3.77-1.89-4.82-1.27a.71.71,0,0,0-.36.56h0a1.15,1.15,0,0,0,.35,1c.92.83,3.38.42,4.77.1Zm-4.53-1.33c.65-.24,2.49.44,3.83,1.06-1.9.37-3.31.33-3.82-.14a.72.72,0,0,1-.22-.66.24.24,0,0,1,.13-.22Z" style="fill:#407BFF"></path><path d="M164.87,401.18l0,0A.25.25,0,0,0,165,401c0-.1-.17-2.46-1.23-3.34a1.34,1.34,0,0,0-1.11-.33h0c-.56.07-.73.36-.78.6-.18,1,1.81,2.83,2.83,3.28A.19.19,0,0,0,164.87,401.18Zm-2.38-3.42a.81.81,0,0,1,.21-.05h0a1,1,0,0,1,.81.24,4.68,4.68,0,0,1,1.05,2.67c-1-.62-2.38-2.07-2.27-2.67A.27.27,0,0,1,162.49,397.76Zm.19-.26h0Z" style="fill:#407BFF"></path><path d="M165.5,131.72c-5.05,6.31-18.32,15-21.83,30.16-3.82-15.1,1.34-31.3,1.34-31.3-2.82-.21-8.67-.47-12.78.68a7.51,7.51,0,0,0-5.27,5.67A258,258,0,0,0,122,187.05c-.08,31.75-2.69,80.89-2.69,80.89s32.16,1.88,57.52-.85c.11-24.27-4.94-65.47-3.63-76.24,1.69-13.85,5.54-40.89,7.45-52.14a6.49,6.49,0,0,0-4.44-7.4,24,24,0,0,0-9-.53A2.57,2.57,0,0,0,165.5,131.72Z" style="fill:#407BFF"></path><path d="M165.49,131.72c-5.05,6.32-18.32,15-21.82,30.16-3.82-15.1,1.34-31.3,1.34-31.3-2.82-.21-8.67-.47-12.78.68a7.51,7.51,0,0,0-5.27,5.67A258,258,0,0,0,122,187.05c-.08,31.75-2.69,80.89-2.69,80.89s32.16,1.88,57.52-.85c.11-24.27-4.94-65.47-3.63-76.24,1.69-13.86,5.54-40.9,7.45-52.14a6.39,6.39,0,0,0-4.15-7.3,24.11,24.11,0,0,0-9.28-.62A2.58,2.58,0,0,0,165.49,131.72Z" style="fill:#fff;opacity:0.7000000000000001"></path><path d="M142,265c-1.52-30.88.76-95.51,1.13-101.29l.54,0c-.37,5.77-2.65,70.36-1.13,101.23Z" style="fill:#407BFF;opacity:0.5"></path><path d="M141.13,142c-3.19,5.58-6.25,11.48-9,17.31-1.38,2.93-2.67,5.87-3.78,8.78-.56,1.45-1.06,2.89-1.49,4.27A23.2,23.2,0,0,0,126,176l0,.08a2.44,2.44,0,0,0,0-.43,6.64,6.64,0,0,0-.12-1,6.42,6.42,0,0,0-.34-1,5.56,5.56,0,0,0-.47-.82,3.81,3.81,0,0,0-1.3-1.21c-.32-.14.08.06.54.14a23.59,23.59,0,0,0,3.87.45,91.2,91.2,0,0,0,9.32-.09c3.19-.2,6.43-.49,9.66-.84,1.62-.18,3.24-.39,4.85-.61l2.42-.33,1.2-.19.6-.09.29-.05.15,0h.09l-.15,0-.29.06,2.9,13.33-.33.06-.19,0h-.13l-.17,0-.33,0-.64.07-1.28.14-2.55.27-5.09.49c-3.41.32-6.82.59-10.29.76s-7,.33-10.68.17a37.27,37.27,0,0,1-6.06-.69,15.6,15.6,0,0,1-4.18-1.47,9.26,9.26,0,0,1-3.2-2.8,8.07,8.07,0,0,1-1.31-3,7.55,7.55,0,0,1-.19-1.66c0-.24,0-.6,0-.75l0-.22a34.52,34.52,0,0,1,1.2-6.19c.51-1.82,1.07-3.54,1.66-5.22,1.2-3.35,2.48-6.56,3.8-9.74s2.72-6.29,4.12-9.39,2.84-6.15,4.34-9.31Z" style="fill:#407BFF"></path><g style="opacity:0.7000000000000001"><path d="M141.13,142c-3.19,5.58-6.25,11.48-9,17.31-1.38,2.93-2.67,5.87-3.78,8.78-.56,1.45-1.06,2.89-1.49,4.27A23.2,23.2,0,0,0,126,176l0,.08a2.44,2.44,0,0,0,0-.43,6.64,6.64,0,0,0-.12-1,6.42,6.42,0,0,0-.34-1,5.56,5.56,0,0,0-.47-.82,3.81,3.81,0,0,0-1.3-1.21c-.32-.14.08.06.54.14a23.59,23.59,0,0,0,3.87.45,91.2,91.2,0,0,0,9.32-.09c3.19-.2,6.43-.49,9.66-.84,1.62-.18,3.24-.39,4.85-.61l2.42-.33,1.2-.19.6-.09.29-.05.15,0h.09l-.15,0-.29.06,2.9,13.33-.33.06-.19,0h-.13l-.17,0-.33,0-.64.07-1.28.14-2.55.27-5.09.49c-3.41.32-6.82.59-10.29.76s-7,.33-10.68.17a37.27,37.27,0,0,1-6.06-.69,15.6,15.6,0,0,1-4.18-1.47,9.26,9.26,0,0,1-3.2-2.8,8.07,8.07,0,0,1-1.31-3,7.55,7.55,0,0,1-.19-1.66c0-.24,0-.6,0-.75l0-.22a34.52,34.52,0,0,1,1.2-6.19c.51-1.82,1.07-3.54,1.66-5.22,1.2-3.35,2.48-6.56,3.8-9.74s2.72-6.29,4.12-9.39,2.84-6.15,4.34-9.31Z" style="fill:#fff"></path></g><path d="M132.12,171.34l-6.53-6.24-4.44,9.28s6.54,5,9.5,2Z" style="fill:#7f3e3b"></path><path d="M156,174.52l6-6.77,5.18,8.9s-6.1,5.5-9.28,2.8Z" style="fill:#7f3e3b"></path><path d="M171,166.94l1.28,3.47a3.25,3.25,0,0,1-1.32,3.82l-3.76,2.42-5.18-8.9,5.06-2.36A2.83,2.83,0,0,1,171,166.94Z" style="fill:#7f3e3b"></path><path d="M116.56,165l-1,3.55a3.25,3.25,0,0,0,1.64,3.69l4,2.11,4.44-9.28-5.25-1.94A2.83,2.83,0,0,0,116.56,165Z" style="fill:#7f3e3b"></path><path d="M180.66,137.26c.36,1.94.64,3.67.93,5.5s.54,3.62.76,5.44c.47,3.64.86,7.3,1.05,11.07a70.36,70.36,0,0,1-.25,11.8,25.82,25.82,0,0,1-1.77,7,15.88,15.88,0,0,1-1,2c-.24.36-.45.7-.74,1.07l-.21.27a3.05,3.05,0,0,1-.27.33,9.48,9.48,0,0,1-.89.9,10.66,10.66,0,0,1-3,1.81,16.11,16.11,0,0,1-2.22.72,33.69,33.69,0,0,1-6.63.78c-2,.06-3.89,0-5.76-.06-3.74-.15-7.36-.51-11-.87s-7.16-.82-10.71-1.32-7.05-1-10.67-1.57l2.47-13.42c3.29.68,6.74,1.26,10.13,1.81s6.81,1,10.2,1.37,6.77.64,10.06.78c1.63.05,3.25.07,4.77,0a19.8,19.8,0,0,0,3.82-.44c.16,0,.33-.11.28-.11a2.78,2.78,0,0,0-.7.47,3.49,3.49,0,0,0-.43.43c-.09.12,0,.06-.07.08h0s0,0,0,0,.07-.15.13-.32a13.46,13.46,0,0,0,.65-3.26,49.86,49.86,0,0,0-.15-9.25c-.31-3.25-.79-6.56-1.38-9.87-.31-1.65-.65-3.3-1-4.95s-.76-3.34-1.16-4.83Z" style="fill:#407BFF"></path><g style="opacity:0.7000000000000001"><path d="M180.66,137.26c.36,1.94.64,3.67.93,5.5s.54,3.62.76,5.44c.47,3.64.86,7.3,1.05,11.07a70.36,70.36,0,0,1-.25,11.8,25.82,25.82,0,0,1-1.77,7,15.88,15.88,0,0,1-1,2c-.24.36-.45.7-.74,1.07l-.21.27a3.05,3.05,0,0,1-.27.33,9.48,9.48,0,0,1-.89.9,10.66,10.66,0,0,1-3,1.81,16.11,16.11,0,0,1-2.22.72,33.69,33.69,0,0,1-6.63.78c-2,.06-3.89,0-5.76-.06-3.74-.15-7.36-.51-11-.87s-7.16-.82-10.71-1.32-7.05-1-10.67-1.57l2.47-13.42c3.29.68,6.74,1.26,10.13,1.81s6.81,1,10.2,1.37,6.77.64,10.06.78c1.63.05,3.25.07,4.77,0a19.8,19.8,0,0,0,3.82-.44c.16,0,.33-.11.28-.11a2.78,2.78,0,0,0-.7.47,3.49,3.49,0,0,0-.43.43c-.09.12,0,.06-.07.08h0s0,0,0,0,.07-.15.13-.32a13.46,13.46,0,0,0,.65-3.26,49.86,49.86,0,0,0-.15-9.25c-.31-3.25-.79-6.56-1.38-9.87-.31-1.65-.65-3.3-1-4.95s-.76-3.34-1.16-4.83Z" style="fill:#fff"></path></g><path d="M158.06,208.65l15,10.93s1.7,14.68-6.73,16.12S156.24,219.23,158.06,208.65Z" style="fill:#407BFF"></path><path d="M158.06,208.65l15,10.93s1.7,14.68-6.73,16.12S156.24,219.23,158.06,208.65Z" style="fill:#fff;opacity:0.5"></path><path d="M125.6,208.65l-5.49,10.93s-1.75,14.68.71,16.12S125.27,219.23,125.6,208.65Z" style="fill:#407BFF"></path><path d="M125.6,208.65l-5.49,10.93s-1.75,14.68.71,16.12S125.27,219.23,125.6,208.65Z" style="fill:#fff;opacity:0.5"></path><path d="M147,104.47a2.48,2.48,0,0,1-.54-.06,2.54,2.54,0,0,1-1.64-1.29,6.92,6.92,0,0,1-.14-5.34c1-3.19,3.49-5.41,5.49-5a2.57,2.57,0,0,1,1.64,1.29,6.92,6.92,0,0,1,.14,5.34h0C151,102.37,148.88,104.47,147,104.47ZM149.62,93c-1.77,0-3.8,2-4.7,4.83A6.76,6.76,0,0,0,145,103a2.3,2.3,0,0,0,1.48,1.17c1.88.44,4.2-1.71,5.19-4.77h0a6.78,6.78,0,0,0-.13-5.14,2.26,2.26,0,0,0-1.47-1.17A2,2,0,0,0,149.62,93Zm2.21,6.4Z" style="fill:#fff"></path><path d="M157.65,106.77a3.82,3.82,0,0,1-.75-.08,4,4,0,0,1-2.69-2.43,7.12,7.12,0,0,1-.33-4.41c.73-3.22,3.28-5.39,5.68-4.85a4,4,0,0,1,2.69,2.43,7.16,7.16,0,0,1,.33,4.4C161.92,104.72,159.8,106.77,157.65,106.77Zm1.16-11.6c-2,0-4.05,2-4.68,4.74a6.91,6.91,0,0,0,.31,4.25,3.71,3.71,0,0,0,2.52,2.28c2.25.52,4.66-1.58,5.37-4.66a6.91,6.91,0,0,0-.31-4.25,3.73,3.73,0,0,0-2.52-2.28A3.25,3.25,0,0,0,158.81,95.17Z" style="fill:#fff"></path><path d="M153.83,101.36a.24.24,0,0,1-.17-.06,2.62,2.62,0,0,0-2.12-.72.25.25,0,0,1-.1-.5,3.1,3.1,0,0,1,2.55.84.25.25,0,0,1,0,.36A.27.27,0,0,1,153.83,101.36Z" style="fill:#fff"></path><path d="M156.63,166l-.55-1.23c8.52-3.76,14.12-11.36,13.25-15.39-.46-2.13-2.7-2.58-4.53-2.55-8.79.08-11.73,8.78-14.1,15.78-.3.9-.6,1.76-.89,2.56l-1.26-.46c.28-.79.57-1.64.88-2.53,2.37-7,5.62-16.61,15.36-16.69h.11c4.32,0,5.46,2.25,5.75,3.6C171.64,153.67,165.86,161.88,156.63,166Z" style="fill:#263238"></path><path d="M154.52,164.51c-.68,1.48-.4,3.05.61,3.51s2.39-.36,3.06-1.84.4-3.05-.61-3.51S155.19,163,154.52,164.51Z" style="fill:#263238"></path><path d="M146.91,164.51c-.68,1.48-.4,3.05.61,3.51s2.39-.36,3.06-1.84.41-3.05-.61-3.51S147.59,163,146.91,164.51Z" style="fill:#263238"></path><ellipse cx="130.94" cy="149.54" rx="3.4" ry="3.32" transform="translate(-30.19 265.91) rotate(-84.63)" style="fill:#263238"></ellipse><path d="M165.45,146.82a.69.69,0,0,1-.24,0,.67.67,0,0,1-.39-.87c0-.05,2.13-5.82-1.22-14.47a.67.67,0,1,1,1.25-.49c3.56,9.17,1.32,15.19,1.22,15.44A.66.66,0,0,1,165.45,146.82Z" style="fill:#263238"></path><path d="M129.65,149.19h-.14a.69.69,0,0,1-.52-.8c.13-.63,3.38-15.52,15.87-18.46a.67.67,0,0,1,.3,1.31c-11.65,2.75-14.82,17.28-14.85,17.42A.68.68,0,0,1,129.65,149.19Z" style="fill:#263238"></path></g><g id="freepik--character-2--inject-3"><polygon points="245.38 406.81 236.19 406.66 235.25 385.31 244.45 385.45 245.38 406.81" style="fill:#ff8b7b"></polygon><path d="M236.12,405.6l10,.15a.68.68,0,0,1,.69.65l.6,8.21a1.56,1.56,0,0,1-1.57,1.61c-3.61-.12-8.8-.41-13.35-.48-5.32-.09-4.81.13-11.05,0-3.77-.06-4.25-3.9-2.62-4.22,7.43-1.46,8.17-1.54,15-5.28A4.64,4.64,0,0,1,236.12,405.6Z" style="fill:#263238"></path><polygon points="235.26 385.31 235.74 396.32 244.94 396.46 244.46 385.46 235.26 385.31" style="opacity:0.2"></polygon><path d="M268.41,120.58c-11.8-2.6-23.78-2.85-35.94-1.74A9.58,9.58,0,0,0,224,126.3c-2.44,11.28-6.49,36.72-4.57,75.47l49.22.8c.8-6.92-1-39,6.41-71.32A8.81,8.81,0,0,0,268.41,120.58Z" style="fill:#407BFF"></path><path d="M239,127.51l1.4,3.68a1.11,1.11,0,0,0,.86.69l1.87.28a1.41,1.41,0,0,0,1-.19l3.49-2.09-3.72-3.33Z" style="fill:#263238"></path><path d="M243.3,131.05a4.27,4.27,0,0,0-2.18-.29c-2.09,3.78-5.34,14.82-6.2,19.74,3.3,10.08,4.69,11.18,4.69,11.18l4-11.56S242.65,137.93,243.3,131.05Z" style="fill:#263238"></path><path d="M260.44,96c-1.79,6.62-4,18.83.41,23.66-3.9,3.35-9,7.19-17,6.88s-6.22-5.7-3.91-8.44c7.62-1.23,7.82-6.8,6.88-12.11Z" style="fill:#ff8b7b"></path><path d="M263,119.28a9.66,9.66,0,0,0-1.7-.75.7.7,0,0,0-.8.24c-.9,1.23-3.82,6.8-16.57,7.78,1.93,1.42,4.29,5.48,5.3,7.41,3.95-1.57,14.31-6.42,14.13-14.06A.73.73,0,0,0,263,119.28Z" style="fill:#fff"></path><path d="M240,118.43a.73.73,0,0,0-.76-1,10.58,10.58,0,0,0-1.31.21.9.9,0,0,0-.28.13c-1,.79-7,7.82-2.76,14.42,1.26-1.54,5.14-5,9-5.69C240.51,124.6,239.07,121.47,240,118.43Z" style="fill:#fff"></path><path d="M254.9,100.08l-8,5.91a21.11,21.11,0,0,1,.38,3.75c2.89-.2,7-3,7.56-6A9.9,9.9,0,0,0,254.9,100.08Z" style="opacity:0.2"></path><path d="M244.07,92c-4.68,1.52-5.4-2.17-4.44-5.8.59-2.26-.23-3.7-.55-6.18-.55-4.07.47-7.67,8.06-10.31,9.84-3.43,7.67,2.35,8.06,4.74s-3.7,3.83-3.5,6.29A11.07,11.07,0,0,1,244.07,92Z" style="fill:#263238"></path><path d="M266.7,87.59c-2.67,8.81-3.79,14.1-9.36,17.72C249,110.76,239,104.32,239,95c0-8.43,4.37-21.43,13.88-23.12A12.16,12.16,0,0,1,266.7,87.59Z" style="fill:#ff8b7b"></path><path d="M264,78.48c-4.75-.84-10.37,1.18-15.11,0-3.76-1-3.72-3.47-3.17-6,.81-3.73,3.91-4.95,5.77-5.64s2.82,1.63,5.39-.14c1.73-1.2,8.33-1.5,12.24,0s-.56,4.33,1.53,5.64C277.11,76.34,273,80.07,264,78.48Z" style="fill:#263238"></path><path d="M249.14,77.46c-1.68-3.83.09-8.95,7.15-9.44C250.1,69.88,249.14,77.46,249.14,77.46Z" style="fill:#fff;opacity:0.30000000000000004"></path><path d="M262.67,96.51c-4-.63-3.77-5.15-1.82-8.28,1.86-3-.88-6.24-1.08-8.51s1.92-4.58,6-4.39,10.56,2.78,10.67,5.77-4.07,2.62-3.42,5.51C274.45,93.05,268.5,97.44,262.67,96.51Z" style="fill:#263238"></path><path d="M271,80.9c-1.69,3-5.2,3.65-9.75,0A12.16,12.16,0,0,0,271,80.9Z" style="fill:#fff;opacity:0.30000000000000004"></path><path d="M240.78,94.73c-1.83,1.93-1.67,5.81-1.57,7.67s1.68,4.92,7.53,5.8,7.22-1.19,7.5-3.15,0-7.53-1.89-9.39S242.85,92.54,240.78,94.73Z" style="fill:#263238"></path><path d="M244.59,97.55a6.27,6.27,0,0,0,4.84-.64.22.22,0,0,0-.24-.36,6,6,0,0,1-5.34.29.22.22,0,0,0-.29.11.22.22,0,0,0,.11.29A7.67,7.67,0,0,0,244.59,97.55Z" style="fill:#ff8b7b"></path><path d="M267.51,98a8.91,8.91,0,0,1-6.11,2.74c-3,.09-3.76-2.81-2.24-5.3,1.38-2.24,4.62-5,7.35-3.87S269.47,95.88,267.51,98Z" style="fill:#ff8b7b"></path><path d="M244.87,293.16c1.2-46.3,13-90.76,13-90.76l-38.37-.62s2.14,66.86,2.72,94.87c.61,29.12,9.71,97.49,9.71,97.49l15.58.24S245.78,329.69,244.87,293.16Z" style="fill:#263238"></path><path d="M248.61,227.87c-11.45,15-7.48,43.16-3.68,63.07.83-24.75,4.57-48.78,7.82-65.55Z" style="opacity:0.2"></path><polygon points="230.92 394.47 249.43 394.76 249.31 388.76 230.05 388.12 230.92 394.47" style="fill:#263238"></polygon><path d="M253.09,86.76c-.18.73-.7,1.24-1.17,1.14s-.72-.77-.54-1.5.69-1.24,1.16-1.14S253.26,86,253.09,86.76Z" style="fill:#263238"></path><path d="M244.73,85.22c-.17.73-.69,1.23-1.17,1.13s-.71-.77-.54-1.5.7-1.23,1.17-1.13S244.9,84.49,244.73,85.22Z" style="fill:#263238"></path><path d="M247,86.37a26.12,26.12,0,0,1-5,4.75c1,1.26,3.28,1.17,3.28,1.17Z" style="fill:#ff5652"></path><path d="M256.65,83.85a.45.45,0,0,0,.22,0,.44.44,0,0,0,.22-.58,4.17,4.17,0,0,0-3-2.5.44.44,0,0,0-.5.37.42.42,0,0,0,.35.49h0a3.35,3.35,0,0,1,2.38,2A.43.43,0,0,0,256.65,83.85Z" style="fill:#263238"></path><path d="M242.38,81.24a.46.46,0,0,0,.4-.12,3.47,3.47,0,0,1,3-1.09.46.46,0,0,0,.52-.35.43.43,0,0,0-.33-.51,4.43,4.43,0,0,0-3.78,1.33.44.44,0,0,0,0,.62A.48.48,0,0,0,242.38,81.24Z" style="fill:#263238"></path><path d="M234.43,406.42a.23.23,0,0,0,.15-.18.2.2,0,0,0-.1-.22c-.41-.22-4-2.16-5.16-1.55a.68.68,0,0,0-.39.57h0a1.18,1.18,0,0,0,.35,1.07c1,.91,3.62.59,5.12.31Zm-4.84-1.6c.71-.23,2.67.56,4.1,1.28-2.05.31-3.56.2-4.1-.31a.77.77,0,0,1-.23-.71.27.27,0,0,1,.15-.23Z" style="fill:#407BFF"></path><path d="M234.43,406.42l0,0a.2.2,0,0,0,.1-.2c0-.1-.12-2.59-1.24-3.57a1.59,1.59,0,0,0-1.19-.39h0c-.61,0-.79.35-.85.6-.22,1,1.88,3.06,3,3.58A.29.29,0,0,0,234.43,406.42Zm-2.49-3.71a.68.68,0,0,1,.23,0h0a1.09,1.09,0,0,1,.87.29,4.9,4.9,0,0,1,1.07,2.85c-1.1-.69-2.51-2.28-2.38-2.9C231.74,402.87,231.76,402.77,231.94,402.71Zm.22-.26h0Z" style="fill:#407BFF"></path><polygon points="286.18 406.81 276.98 406.66 274.66 385.31 283.87 385.45 286.18 406.81" style="fill:#ff8b7b"></polygon><path d="M276.54,405.6l10,.15a.68.68,0,0,1,.69.65l.6,8.21a1.56,1.56,0,0,1-1.57,1.61c-3.61-.12-4.73-.41-9.28-.48-5.32-.09-2.87.13-9.11,0-3.77-.06-4.24-3.88-2.62-4.22,5.15-1.07,6.56-3.11,8.94-5.28A3.3,3.3,0,0,1,276.54,405.6Z" style="fill:#263238"></path><polygon points="274.67 385.31 275.86 396.32 285.07 396.46 283.88 385.46 274.67 385.31" style="opacity:0.2"></polygon><path d="M277,292c-3.82-41.38-2.39-73.31-8.35-89.43l-32.52-.52s14.46,65.42,19.88,93c5.62,28.66,15.85,96.38,15.85,96.38l14.84.21S285.66,324,277,292Z" style="fill:#263238"></path><polygon points="269.71 394.47 288.23 394.76 289.48 388.76 268.84 388.12 269.71 394.47" style="fill:#263238"></polygon><path d="M278.34,406.29a.22.22,0,0,0,.18-.36c-.3-.35-3-3.43-4.25-3.25a.73.73,0,0,0-.56.42h0a1.22,1.22,0,0,0,0,1.13c.58,1.2,3.16,1.81,4.64,2.06Zm-3.94-3.18c.74,0,2.29,1.46,3.36,2.63-2-.41-3.37-1-3.69-1.71a.77.77,0,0,1,0-.75.26.26,0,0,1,.22-.16Z" style="fill:#407BFF"></path><path d="M278.34,406.29h.06a.22.22,0,0,0,.16-.16c0-.1.77-2.5.07-3.82a1.54,1.54,0,0,0-1-.78h0c-.58-.16-.85.06-1,.28-.56.91.69,3.56,1.52,4.42A.2.2,0,0,0,278.34,406.29Zm-1-4.38.22,0h0a1.11,1.11,0,0,1,.71.58,5.06,5.06,0,0,1,0,3.08c-.78-1-1.54-3-1.21-3.58C277.06,402,277.12,401.91,277.31,401.91Zm.29-.17h0Z" style="fill:#407BFF"></path><path d="M201.85,206.18,196.51,214l10.57,3.23s4-7.64.36-10.29Z" style="fill:#ff8b7b"></path><path d="M198.12,223.5l3.92.5a3.35,3.35,0,0,0,3.57-2.29l1.47-4.48L196.51,214l-1,5.82A3.12,3.12,0,0,0,198.12,223.5Z" style="fill:#ff8b7b"></path><path d="M236.54,129.69q-3,10.2-5.88,20.47c-1.92,6.82-3.73,13.71-5.47,20.48-.34,1.46-1,4-1.61,5.64s-1.2,3.53-1.81,5.25c-1.24,3.42-2.5,6.78-3.78,10.13l-7.57,20.09L197,206.34c2.78-6.47,5.39-13.07,7.93-19.64,1.23-3.3,2.44-6.61,3.59-9.88.57-1.64,1.13-3.27,1.62-4.85s.75-2.63,1.19-4.64c1.59-7.05,3.31-13.93,4.91-20.89s3.25-13.86,4.81-20.81Z" style="fill:#407BFF"></path><g style="opacity:0.6000000000000001"><path d="M236.54,129.69q-3,10.2-5.88,20.47c-1.92,6.82-3.73,13.71-5.47,20.48-.34,1.46-1,4-1.61,5.64s-1.2,3.53-1.81,5.25c-1.24,3.42-2.5,6.78-3.78,10.13l-7.57,20.09L197,206.34c2.78-6.47,5.39-13.07,7.93-19.64,1.23-3.3,2.44-6.61,3.59-9.88.57-1.64,1.13-3.27,1.62-4.85s.75-2.63,1.19-4.64c1.59-7.05,3.31-13.93,4.91-20.89s3.25-13.86,4.81-20.81Z" style="fill:#fff"></path></g><path d="M244.26,222.05l-56.07-3.9a3.32,3.32,0,0,1-3.06-3.27V176.39a2.82,2.82,0,0,1,3.06-2.85l56.07,3.89a3.34,3.34,0,0,1,3.06,3.28V219.2A2.82,2.82,0,0,1,244.26,222.05Z" style="fill:#263238"></path><path d="M245.23,221.48l-56.07-3.9a3.32,3.32,0,0,1-3.06-3.27V175.82a2.82,2.82,0,0,1,3.06-2.85l56.07,3.89a3.33,3.33,0,0,1,3.06,3.27v38.5A2.82,2.82,0,0,1,245.23,221.48Z" style="fill:#407BFF"></path><path d="M263.41,117.47c-4.6,6.79-20.75,17.12-24.13,33.94-4.55-16.06-.17-34.35-.17-34.35a45.71,45.71,0,0,0-13,1.78,7.66,7.66,0,0,0-5.43,6,272.37,272.37,0,0,0-3.67,53.3c.93,33.77-.27,86-.27,86s34.26,2,61.14-.9c-.65-25.8-7.34-69.63-6.29-81.08,1.35-14.73,4.59-43.48,6.26-55.44a7.15,7.15,0,0,0-5-7.88A36,36,0,0,0,263.41,117.47Z" style="fill:#407BFF"></path><path d="M263.41,117.47c-4.6,6.79-20.75,17.12-24.13,33.94-4.55-16.06-.17-34.35-.17-34.35a45.71,45.71,0,0,0-13,1.78,7.66,7.66,0,0,0-5.43,6,272.37,272.37,0,0,0-3.67,53.3c.93,33.77-.27,86-.27,86s34.26,2,61.14-.9c-.65-25.8-7.34-69.63-6.29-81.08,1.35-14.73,4.59-43.49,6.26-55.45a7,7,0,0,0-4.65-7.76A35.46,35.46,0,0,0,263.41,117.47Z" style="fill:#fff;opacity:0.7000000000000001"></path><path d="M266.19,199.61l-5.74,7.53,10.39,3.78s4.38-7.42.89-10.26Z" style="fill:#ff8b7b"></path><path d="M261.56,216.71l3.88.71a3.36,3.36,0,0,0,3.69-2.1l1.71-4.4-10.39-3.78-1.35,5.76A3.1,3.1,0,0,0,261.56,216.71Z" style="fill:#ff8b7b"></path><path d="M277.21,123.35c1.5,3.29,2.9,6.42,4.26,9.67s2.72,6.46,4,9.77S287.9,149.47,289,153c.53,1.78,1,3.6,1.43,5.57.2,1,.38,2,.52,3.1a23.27,23.27,0,0,1,.19,3.71c0,.42-.06.85-.1,1.27l-.16,1c-.12.68-.26,1.16-.39,1.75-.28,1-.58,2-.88,2.94-.62,1.84-1.27,3.54-1.95,5.21-1.36,3.35-2.81,6.53-4.29,9.7s-2.94,6.29-4.47,9.4-3,6.18-4.59,9.33l-12.81-6.82c3.25-5.79,6.32-11.84,9.16-17.83,1.4-3,2.73-6.05,3.91-9,.59-1.48,1.15-3,1.6-4.36l.31-1,.24-.95c0-.24.13-.58.14-.74l0-.27s0,0,0,0l0-.56c0-.27-.05-.5-.11-.82-.09-.59-.22-1.24-.38-1.92-.32-1.36-.75-2.82-1.24-4.29-1-3-2.17-6-3.47-9s-2.68-6-4.15-9-3-6-4.57-8.76Z" style="fill:#407BFF"></path><g style="opacity:0.7000000000000001"><path d="M277.21,123.35c1.5,3.29,2.9,6.42,4.26,9.67s2.72,6.46,4,9.77S287.9,149.47,289,153c.53,1.78,1,3.6,1.43,5.57.2,1,.38,2,.52,3.1a23.27,23.27,0,0,1,.19,3.71c0,.42-.06.85-.1,1.27l-.16,1c-.12.68-.26,1.16-.39,1.75-.28,1-.58,2-.88,2.94-.62,1.84-1.27,3.54-1.95,5.21-1.36,3.35-2.81,6.53-4.29,9.7s-2.94,6.29-4.47,9.4-3,6.18-4.59,9.33l-12.81-6.82c3.25-5.79,6.32-11.84,9.16-17.83,1.4-3,2.73-6.05,3.91-9,.59-1.48,1.15-3,1.6-4.36l.31-1,.24-.95c0-.24.13-.58.14-.74l0-.27s0,0,0,0l0-.56c0-.27-.05-.5-.11-.82-.09-.59-.22-1.24-.38-1.92-.32-1.36-.75-2.82-1.24-4.29-1-3-2.17-6-3.47-9s-2.68-6-4.15-9-3-6-4.57-8.76Z" style="fill:#fff"></path></g><path d="M256.07,201.14l16.27,11.63s2.28,15.61-6.64,17.14S254.48,212.39,256.07,201.14Z" style="fill:#407BFF"></path><path d="M256.07,201.14l16.27,11.63s2.28,15.61-6.64,17.14S254.48,212.39,256.07,201.14Z" style="fill:#fff;opacity:0.5"></path><path d="M221.56,201.14l-5.5,11.63s-1.38,15.61,1.27,17.14S221.54,212.39,221.56,201.14Z" style="fill:#407BFF"></path><path d="M221.56,201.14l-5.5,11.63s-1.38,15.61,1.27,17.14S221.54,212.39,221.56,201.14Z" style="fill:#fff;opacity:0.5"></path><path d="M240.83,261c-2.6-32.82-2.23-101.58-2-107.72l.58,0c-.21,6.14-.57,74.85,2,107.65Z" style="fill:#407BFF;opacity:0.5"></path></g><g id="freepik--character-3--inject-3"><path d="M317.51,101.92c-7.35,5.32-13.46,26.19,4.07,34.62s42.25,7.75,34.78-10.58-4.8-29.11-22.44-31.2S317.51,101.92,317.51,101.92Z" style="fill:#263238"></path><path d="M364.75,211.73l3.54,1.23,4.5,6.82a5.19,5.19,0,0,1,.83,3.38l-.26,2.42a1.67,1.67,0,0,1-1.59,1.51l-4.7.16a1.75,1.75,0,0,1-1.76-1.5l-.6-5.53S362.43,214.7,364.75,211.73Z" style="fill:#ffb573"></path><path d="M359.16,156.16c-.08,2.54-.1,5.26-.08,7.89s.07,5.31.16,8c.19,5.29.56,10.57,1.21,15.72l.06.63s0-.2,0-.15,0,0,0,.14l0,.25.08.31c.11.44.25.94.4,1.46.3,1,.66,2.12,1,3.2.75,2.17,1.59,4.37,2.45,6.56s1.76,4.37,2.69,6.53,1.9,4.33,2.88,6.23l-7.49,4.36c-1.41-2.27-2.55-4.4-3.72-6.58s-2.26-4.36-3.35-6.56-2.13-4.42-3.14-6.72c-.51-1.15-1-2.31-1.48-3.55-.24-.62-.47-1.26-.69-2l-.16-.55-.17-.62c-.05-.21-.1-.5-.15-.75s-.1-.7-.13-1.05l.07.63c-1.1-5.57-1.87-11.11-2.46-16.65-.29-2.77-.54-5.53-.75-8.31s-.38-5.5-.49-8.4Z" style="fill:#407BFF"></path><path d="M359.16,156.16c-.08,2.54-.1,5.26-.08,7.89s.07,5.31.16,8c.19,5.29.56,10.57,1.21,15.72l.06.63s0-.2,0-.15,0,0,0,.14l0,.25.08.31c.11.44.25.94.4,1.46.3,1,.66,2.12,1,3.2.75,2.17,1.59,4.37,2.45,6.56s1.76,4.37,2.69,6.53,1.9,4.33,2.88,6.23l-7.49,4.36c-1.41-2.27-2.55-4.4-3.72-6.58s-2.26-4.36-3.35-6.56-2.13-4.42-3.14-6.72c-.51-1.15-1-2.31-1.48-3.55-.24-.62-.47-1.26-.69-2l-.16-.55-.17-.62c-.05-.21-.1-.5-.15-.75s-.1-.7-.13-1.05l.07.63c-1.1-5.57-1.87-11.11-2.46-16.65-.29-2.77-.54-5.53-.75-8.31s-.38-5.5-.49-8.4Z" style="fill:#fff;opacity:0.5"></path><path d="M352.91,202.06s-1.16,68.21-4,95.82c-3.62,36-13.33,66.4-15.62,91.27L325.25,388s-.52-60.89,6.79-90c-6.63-30.87-6.79-95.9-6.79-95.9Z" style="fill:#ffb573"></path><path d="M348.15,409.11a13.28,13.28,0,0,0-3.73-1.86h0s-6.63-3.69-10.29-14.8L329,391.18a3.55,3.55,0,0,0-4.13,1.73,1.76,1.76,0,0,0-.2.64,27.16,27.16,0,0,0,.08,3.61c.15,3.76.76,12.2.76,12.2h.88a64.44,64.44,0,0,1,.29-7.66c.38-2.48,2.2.45,3.24,3.25s5,5.78,10.77,5.92C347.42,411,350.13,410.74,348.15,409.11Z" style="fill:#263238"></path><path d="M325.78,393a45.61,45.61,0,0,1-1.11-7.12l9.5,1.18s-.07,5.78,1.67,9.65A52.64,52.64,0,0,1,325.78,393Z" style="fill:#263238"></path><path d="M345.92,202.06S334.52,271,328.1,298.67c-8.37,36.1-9.53,92.95-9.53,92.95l-7.55-.73s-8.68-51.83.66-92.22c-.7-31,5.34-96.61,5.34-96.61Z" style="fill:#ffb573"></path><path d="M328,409.11a10.73,10.73,0,0,0-3.42-1.86h0s-3.72-3.69-5.51-14.8l-4.87-1.27a4.15,4.15,0,0,0-4.43,1.73,2.35,2.35,0,0,0-.31.64,28.28,28.28,0,0,0-.52,3.61c-.49,3.76-.07,12.2-.07,12.2h.88l.35-7.66c.13-2.6,2.12.45,2.69,3.25s1.78,5.78,7.48,5.92C326.92,411,329.68,410.74,328,409.11Z" style="fill:#263238"></path><path d="M309.6,393c-.32-2.6-.42-7.12-.42-7.12L320,387.08s-1.31,5.14-.23,9C314.32,394.65,309.6,393,309.6,393Z" style="fill:#263238"></path><path d="M357.71,153.06c.4,6.62.71,25.33-2.85,53.94H316.09c.05-13.86,1.18-27.13-5.14-53.19a6.87,6.87,0,0,1,5.79-8.55c2.19-.28,4.69-.53,7.3-.65a115.31,115.31,0,0,1,16.84,0c3.64.33,7.54.91,10.51,1.42A7.63,7.63,0,0,1,357.71,153.06Z" style="fill:#fff"></path><path d="M326.94,126.29c1.27,5.42,2.71,15.34-.94,19,0,0,3.38,5.37,13.85,9.89,5.77-3.49,3-9.89,3-9.89-6.1-1.44-6.11-5.93-5.22-10.14Z" style="fill:#ffb573"></path><path d="M331.3,129.89l6.32,5.22a16.4,16.4,0,0,0-.41,3c-2.32-.34-5.59-2.87-5.93-5.29A8.1,8.1,0,0,1,331.3,129.89Z" style="opacity:0.2"></path><path d="M320.85,116.35c2.44,8.81,3.3,12.59,8.62,16.38,8,5.72,17.88,1.24,18-8,.12-8.33-3.9-21.35-13.07-23.39S318.4,107.53,320.85,116.35Z" style="fill:#ffb573"></path><path d="M322.65,121c2.15-1.86,4.29-10,3.17-13.46,7.69.63,14.1-2.08,17.2.54.33-4-3.23-9.42-9.56-9.36S311.91,106.39,322.65,121Z" style="fill:#263238"></path><path d="M333.08,116.64c.15.73.66,1.25,1.13,1.16s.73-.74.57-1.46-.66-1.25-1.13-1.16S332.92,115.92,333.08,116.64Z" style="fill:#263238"></path><path d="M341.77,115.05c.16.73.67,1.25,1.14,1.16s.73-.74.57-1.46-.66-1.25-1.14-1.16S341.62,114.33,341.77,115.05Z" style="fill:#263238"></path><path d="M342.15,113.66l1.62-.81S343.17,114.37,342.15,113.66Z" style="fill:#263238"></path><path d="M340.5,116.62a20.72,20.72,0,0,0,3.57,4.17,3.07,3.07,0,0,1-2.47.95Z" style="fill:#ed893e"></path><path d="M338.69,125.39a6.9,6.9,0,0,0,1.23-.12.2.2,0,0,0,.16-.25.23.23,0,0,0-.26-.17,6,6,0,0,1-5.13-1.42.22.22,0,0,0-.31,0,.23.23,0,0,0,0,.31A6.34,6.34,0,0,0,338.69,125.39Z" style="fill:#263238"></path><path d="M318.86,122.46a7,7,0,0,0,4.2,3c2.3.54,3.27-1.49,2.49-3.56-.7-1.87-2.73-4.4-5-4S317.7,120.62,318.86,122.46Z" style="fill:#ffb573"></path><path d="M331.15,112.9a.42.42,0,0,0,.3-.17,3.32,3.32,0,0,1,2.75-1.38.43.43,0,0,0,.46-.39.47.47,0,0,0-.41-.47,4.16,4.16,0,0,0-3.5,1.71.43.43,0,0,0,.09.6A.54.54,0,0,0,331.15,112.9Z" style="fill:#263238"></path><path d="M344.64,110.22a.41.41,0,0,0,.23-.22.43.43,0,0,0-.22-.57,4.28,4.28,0,0,0-3.95,0,.43.43,0,0,0-.13.6.45.45,0,0,0,.6.15,3.4,3.4,0,0,1,3.13,0A.41.41,0,0,0,344.64,110.22Z" style="fill:#263238"></path><path d="M333.45,115.25l1.62-.81S334.47,116,333.45,115.25Z" style="fill:#263238"></path><path d="M354.86,207l.77,106.05c-18,1.47-35.21.92-51.45-2.26C303.11,271,295.33,227.15,316.09,207Z" style="fill:#263238"></path><polygon points="334.81 278.77 330.75 243.87 340.5 233.8 334.81 278.77" style="opacity:0.2"></polygon><path d="M359.46,159.64c-.49-9.31-2-13-8.12-14.12s-11.87-1.76-11.87-1.76a17.37,17.37,0,0,1,3.54,26c-4.12-7.66-19.75-19.66-16-25.91a44.84,44.84,0,0,0-10.91.78c-6,1.16-7.76,5.31-6.28,14.55,3.81,23.6.9,52.26.9,52.26s22.33,10.52,29.75,12.53c11.81-2.88,14.41-11.14,14.41-11.14S360,169,359.46,159.64Z" style="fill:#407BFF"></path><path d="M359.46,159.64c-.49-9.31-2-13-8.12-14.12s-11.87-1.76-11.87-1.76a17.37,17.37,0,0,1,3.54,26c-4.12-7.66-19.75-19.66-16-25.91a44.84,44.84,0,0,0-10.91.78c-6,1.16-7.76,5.31-6.28,14.55,3.81,23.6.9,52.26.9,52.26s22.33,10.52,29.75,12.53c11.81-2.88,14.41-11.14,14.41-11.14S360,169,359.46,159.64Z" style="fill:#fff;opacity:0.6000000000000001"></path><path d="M326.19,177.72c-4.16-6.07-7.28-15-4.86-19.51a4.92,4.92,0,0,1,4.68-2.56,5.72,5.72,0,0,1,4.29,1.9c2.7,2.95,3.64,9.08,2.87,18.72l-1-.08c.74-9.22-.14-15.26-2.6-17.95a4.65,4.65,0,0,0-3.55-1.57,3.94,3.94,0,0,0-3.77,2c-1.93,3.62.18,11.73,4.8,18.46Z" style="fill:#263238"></path><ellipse cx="327.04" cy="177.27" rx="1.53" ry="2.23" style="fill:#263238"></ellipse><path d="M334.35,176.67c0,1.23-.69,2.23-1.53,2.23s-1.53-1-1.53-2.23.69-2.23,1.53-2.23S334.35,175.44,334.35,176.67Z" style="fill:#263238"></path><path d="M354.1,158.51a2.51,2.51,0,1,1-2.74-2.33A2.55,2.55,0,0,1,354.1,158.51Z" style="fill:#263238"></path><path d="M325.51,156.69a.51.51,0,0,1-.47-.33,28.29,28.29,0,0,1-1.17-12.65.5.5,0,0,1,.56-.45.51.51,0,0,1,.45.56A28.4,28.4,0,0,0,326,156a.5.5,0,0,1-.28.66A.46.46,0,0,1,325.51,156.69Z" style="fill:#263238"></path><path d="M352.57,158.48a.51.51,0,0,1-.51-.48c0-.11-.71-11.3-9.46-13.36a.51.51,0,0,1-.38-.61.52.52,0,0,1,.62-.38c9.49,2.24,10.23,14.18,10.24,14.3a.5.5,0,0,1-.48.53Z" style="fill:#263238"></path><path d="M327.25,196.74,336,163.41a2.47,2.47,0,0,1,2.37-1.75l23.83.89a1.45,1.45,0,0,1,1.41,1.89l-8.79,33.33a2.46,2.46,0,0,1-2.37,1.75l-23.82-.89A1.45,1.45,0,0,1,327.25,196.74Z" style="fill:#263238"></path><path d="M327.5,197.33,336.29,164a2.45,2.45,0,0,1,2.37-1.75l23.82.89a1.44,1.44,0,0,1,1.41,1.89l-8.78,33.34a2.47,2.47,0,0,1-2.38,1.74l-23.82-.89A1.44,1.44,0,0,1,327.5,197.33Z" style="fill:#407BFF"></path><path d="M324.37,186.09l.42-3.73,5.68-5.88a5.18,5.18,0,0,1,3.12-1.53l2.42-.28a1.67,1.67,0,0,1,1.82,1.22l1.18,4.56a1.75,1.75,0,0,1-1.08,2l-5.27,1.78S327.78,187.71,324.37,186.09Z" style="fill:#ffb573"></path><path d="M321.58,155.38c-.36.47-.82,1.11-1.23,1.68l-1.25,1.81q-1.25,1.83-2.4,3.71a85.66,85.66,0,0,0-4.21,7.66,49.41,49.41,0,0,0-3,7.78,20.84,20.84,0,0,0-.93,7.17l-2.25-3.71h0c-.63-.4-.61-.26-.47-.23a5,5,0,0,0,.77.18,16.74,16.74,0,0,0,2.33.24,44.82,44.82,0,0,0,5.39-.17c1.84-.16,3.68-.42,5.48-.76a38.07,38.07,0,0,0,5.18-1.35l3.32,8a46,46,0,0,1-6.28,2.31,63.13,63.13,0,0,1-6.32,1.52,55.05,55.05,0,0,1-6.6.84,28.06,28.06,0,0,1-3.67,0,14.12,14.12,0,0,1-2.2-.31,8.74,8.74,0,0,1-3.24-1.37h0l-1.89-1.24-.36-2.46a31.3,31.3,0,0,1,.59-11.42,61.12,61.12,0,0,1,3.16-9.89,97.74,97.74,0,0,1,4.29-9.06q1.17-2.19,2.43-4.33l1.3-2.13c.45-.73.86-1.38,1.41-2.19Z" style="fill:#407BFF"></path><path d="M321.58,155.38c-.36.47-.82,1.11-1.23,1.68l-1.25,1.81q-1.25,1.83-2.4,3.71a85.66,85.66,0,0,0-4.21,7.66,49.41,49.41,0,0,0-3,7.78,20.84,20.84,0,0,0-.93,7.17l-2.25-3.71h0c-.63-.4-.61-.26-.47-.23a5,5,0,0,0,.77.18,16.74,16.74,0,0,0,2.33.24,44.82,44.82,0,0,0,5.39-.17c1.84-.16,3.68-.42,5.48-.76a38.07,38.07,0,0,0,5.18-1.35l3.32,8a46,46,0,0,1-6.28,2.31,63.13,63.13,0,0,1-6.32,1.52,55.05,55.05,0,0,1-6.6.84,28.06,28.06,0,0,1-3.67,0,14.12,14.12,0,0,1-2.2-.31,8.74,8.74,0,0,1-3.24-1.37h0l-1.89-1.24-.36-2.46a31.3,31.3,0,0,1,.59-11.42,61.12,61.12,0,0,1,3.16-9.89,97.74,97.74,0,0,1,4.29-9.06q1.17-2.19,2.43-4.33l1.3-2.13c.45-.73.86-1.38,1.41-2.19Z" style="fill:#fff;opacity:0.6000000000000001"></path></g></svg>